<?xml version="1.0" encoding="utf-8" standalone="no"?>
<!DOCTYPE svg PUBLIC "-//W3C//DTD SVG 1.1//EN"
  "http://www.w3.org/Graphics/SVG/1.1/DTD/svg11.dtd">
<!-- Created with matplotlib (https://matplotlib.org/) -->
<svg height="345.6pt" version="1.1" viewBox="0 0 460.8 345.6" width="460.8pt" xmlns="http://www.w3.org/2000/svg" xmlns:xlink="http://www.w3.org/1999/xlink">
 <metadata>
  <rdf:RDF xmlns:cc="http://creativecommons.org/ns#" xmlns:dc="http://purl.org/dc/elements/1.1/" xmlns:rdf="http://www.w3.org/1999/02/22-rdf-syntax-ns#">
   <cc:Work>
    <dc:type rdf:resource="http://purl.org/dc/dcmitype/StillImage"/>
    <dc:date>2021-11-24T15:32:44.737548</dc:date>
    <dc:format>image/svg+xml</dc:format>
    <dc:creator>
     <cc:Agent>
      <dc:title>Matplotlib v3.3.4, https://matplotlib.org/</dc:title>
     </cc:Agent>
    </dc:creator>
   </cc:Work>
  </rdf:RDF>
 </metadata>
 <defs>
  <style type="text/css">*{stroke-linecap:butt;stroke-linejoin:round;}</style>
 </defs>
 <g id="figure_1">
  <g id="patch_1">
   <path d="M 0 345.6 
L 460.8 345.6 
L 460.8 0 
L 0 0 
z
" style="fill:#ffffff;"/>
  </g>
  <g id="axes_1">
   <g id="patch_2">
    <path d="M 57.6 307.584 
L 414.72 307.584 
L 414.72 41.472 
L 57.6 41.472 
z
" style="fill:#eaeaec;"/>
   </g>
   <g id="matplotlib.axis_1">
    <g id="xtick_1">
     <g id="line2d_1">
      <path clip-path="url(#p97f53e1780)" d="M 73.832727 307.584 
L 73.832727 41.472 
" style="fill:none;stroke:#ffffff;stroke-linecap:round;"/>
     </g>
     <g id="text_1">
      <!-- 0 -->
      <g style="fill:#262626;" transform="translate(71.099055 324.916344)scale(0.11 -0.11)">
       <defs>
        <path d="M 24.90625 -1.203125 
C 37.59375 -1.203125 45.296875 10.703125 45.296875 32.09375 
C 45.296875 53.5 37.59375 65 24.90625 65 
C 12.09375 65 4.40625 53.5 4.40625 32.09375 
C 4.40625 10.703125 12.09375 -1.203125 24.90625 -1.203125 
z
M 24.90625 5.5 
C 17.5 5.5 12.5 13.40625 12.5 32.09375 
C 12.5 50.796875 17.5 58.296875 24.90625 58.296875 
C 32.296875 58.296875 37.296875 50.796875 37.296875 32.09375 
C 37.296875 13.40625 32.296875 5.5 24.90625 5.5 
z
" id="SourceSansPro-Regular-48"/>
       </defs>
       <use xlink:href="#SourceSansPro-Regular-48"/>
      </g>
     </g>
    </g>
    <g id="xtick_2">
     <g id="line2d_2">
      <path clip-path="url(#p97f53e1780)" d="M 131.727561 307.584 
L 131.727561 41.472 
" style="fill:none;stroke:#ffffff;stroke-linecap:round;"/>
     </g>
     <g id="text_2">
      <!-- 100000 -->
      <g style="fill:#262626;" transform="translate(115.32553 324.916344)scale(0.11 -0.11)">
       <defs>
        <path d="M 7.90625 0 
L 43.90625 0 
L 43.90625 6.90625 
L 30.796875 6.90625 
L 30.796875 63.796875 
L 24.40625 63.796875 
C 20.90625 61.703125 16.703125 60.09375 10.796875 59.09375 
L 10.796875 53.703125 
L 22.5 53.703125 
L 22.5 6.90625 
L 7.90625 6.90625 
z
" id="SourceSansPro-Regular-49"/>
       </defs>
       <use xlink:href="#SourceSansPro-Regular-49"/>
       <use x="49.699997" xlink:href="#SourceSansPro-Regular-48"/>
       <use x="99.399994" xlink:href="#SourceSansPro-Regular-48"/>
       <use x="149.099991" xlink:href="#SourceSansPro-Regular-48"/>
       <use x="198.799988" xlink:href="#SourceSansPro-Regular-48"/>
       <use x="248.499985" xlink:href="#SourceSansPro-Regular-48"/>
      </g>
     </g>
    </g>
    <g id="xtick_3">
     <g id="line2d_3">
      <path clip-path="url(#p97f53e1780)" d="M 189.622395 307.584 
L 189.622395 41.472 
" style="fill:none;stroke:#ffffff;stroke-linecap:round;"/>
     </g>
     <g id="text_3">
      <!-- 200000 -->
      <g style="fill:#262626;" transform="translate(173.220364 324.916344)scale(0.11 -0.11)">
       <defs>
        <path d="M 4 0 
L 45.203125 0 
L 45.203125 7.09375 
L 26.09375 7.09375 
C 22.796875 7.09375 18.90625 6.90625 15.40625 6.59375 
C 30.90625 22.40625 42.09375 33.90625 42.09375 46.296875 
C 42.09375 57.5 34.703125 65 22.90625 65 
C 14.703125 65 9 61.09375 3.703125 55.09375 
L 8.40625 50.59375 
C 12 54.796875 16.59375 58.203125 21.90625 58.203125 
C 30 58.203125 34 53.09375 34 45.796875 
C 34 35.5 23 23.703125 4 5.09375 
z
" id="SourceSansPro-Regular-50"/>
       </defs>
       <use xlink:href="#SourceSansPro-Regular-50"/>
       <use x="49.699997" xlink:href="#SourceSansPro-Regular-48"/>
       <use x="99.399994" xlink:href="#SourceSansPro-Regular-48"/>
       <use x="149.099991" xlink:href="#SourceSansPro-Regular-48"/>
       <use x="198.799988" xlink:href="#SourceSansPro-Regular-48"/>
       <use x="248.499985" xlink:href="#SourceSansPro-Regular-48"/>
      </g>
     </g>
    </g>
    <g id="xtick_4">
     <g id="line2d_4">
      <path clip-path="url(#p97f53e1780)" d="M 247.51723 307.584 
L 247.51723 41.472 
" style="fill:none;stroke:#ffffff;stroke-linecap:round;"/>
     </g>
     <g id="text_4">
      <!-- 300000 -->
      <g style="fill:#262626;" transform="translate(231.115198 324.916344)scale(0.11 -0.11)">
       <defs>
        <path d="M 23.59375 -1.203125 
C 35.296875 -1.203125 44.703125 5.703125 44.703125 17 
C 44.703125 25.796875 38.59375 31.40625 30.90625 33.203125 
L 30.90625 33.59375 
C 37.796875 36.203125 42.40625 41.09375 42.40625 48.796875 
C 42.40625 59.09375 34.40625 65 23.296875 65 
C 15.796875 65 9.90625 61.59375 5 57 
L 9.40625 51.796875 
C 13.203125 55.5 17.703125 58.203125 23 58.203125 
C 29.796875 58.203125 34 54.296875 34 48.203125 
C 34 41.5 29.40625 36.296875 15.90625 36.296875 
L 15.90625 30 
C 31.09375 30 36.296875 24.90625 36.296875 17.296875 
C 36.296875 10.203125 30.796875 5.703125 23.09375 5.703125 
C 15.59375 5.703125 10.59375 9.203125 6.796875 13.203125 
L 2.59375 7.796875 
C 6.90625 3.09375 13.40625 -1.203125 23.59375 -1.203125 
z
" id="SourceSansPro-Regular-51"/>
       </defs>
       <use xlink:href="#SourceSansPro-Regular-51"/>
       <use x="49.699997" xlink:href="#SourceSansPro-Regular-48"/>
       <use x="99.399994" xlink:href="#SourceSansPro-Regular-48"/>
       <use x="149.099991" xlink:href="#SourceSansPro-Regular-48"/>
       <use x="198.799988" xlink:href="#SourceSansPro-Regular-48"/>
       <use x="248.499985" xlink:href="#SourceSansPro-Regular-48"/>
      </g>
     </g>
    </g>
    <g id="xtick_5">
     <g id="line2d_5">
      <path clip-path="url(#p97f53e1780)" d="M 305.412064 307.584 
L 305.412064 41.472 
" style="fill:none;stroke:#ffffff;stroke-linecap:round;"/>
     </g>
     <g id="text_5">
      <!-- 400000 -->
      <g style="fill:#262626;" transform="translate(289.010032 324.916344)scale(0.11 -0.11)">
       <defs>
        <path d="M 10.40625 24.203125 
L 25.296875 45.90625 
C 27.09375 49.09375 28.90625 51.90625 30.5 54.90625 
L 30.90625 54.90625 
C 30.703125 51.5 30.40625 46 30.40625 42.703125 
L 30.40625 24.203125 
z
M 30.40625 0 
L 38.203125 0 
L 38.203125 17.59375 
L 46.90625 17.59375 
L 46.90625 24.203125 
L 38.203125 24.203125 
L 38.203125 63.796875 
L 29 63.796875 
L 1.703125 23.09375 
L 1.703125 17.59375 
L 30.40625 17.59375 
z
" id="SourceSansPro-Regular-52"/>
       </defs>
       <use xlink:href="#SourceSansPro-Regular-52"/>
       <use x="49.699997" xlink:href="#SourceSansPro-Regular-48"/>
       <use x="99.399994" xlink:href="#SourceSansPro-Regular-48"/>
       <use x="149.099991" xlink:href="#SourceSansPro-Regular-48"/>
       <use x="198.799988" xlink:href="#SourceSansPro-Regular-48"/>
       <use x="248.499985" xlink:href="#SourceSansPro-Regular-48"/>
      </g>
     </g>
    </g>
    <g id="xtick_6">
     <g id="line2d_6">
      <path clip-path="url(#p97f53e1780)" d="M 363.306898 307.584 
L 363.306898 41.472 
" style="fill:none;stroke:#ffffff;stroke-linecap:round;"/>
     </g>
     <g id="text_6">
      <!-- 500000 -->
      <g style="fill:#262626;" transform="translate(346.904867 324.916344)scale(0.11 -0.11)">
       <defs>
        <path d="M 23.40625 -1.203125 
C 34.5 -1.203125 44.90625 6.59375 44.90625 20.40625 
C 44.90625 34.203125 36 40.40625 25.203125 40.40625 
C 21.296875 40.40625 18.40625 39.40625 15.40625 37.796875 
L 17.09375 56.59375 
L 41.796875 56.59375 
L 41.796875 63.796875 
L 9.796875 63.796875 
L 7.703125 33.09375 
L 12.09375 30.296875 
C 15.90625 32.796875 18.59375 34.09375 23 34.09375 
C 31.203125 34.09375 36.5 29 36.5 20.203125 
C 36.5 11.296875 30.40625 5.703125 22.59375 5.703125 
C 15.09375 5.703125 10.296875 9.203125 6.5 13 
L 2.5 7.5 
C 6.90625 3.09375 13.203125 -1.203125 23.40625 -1.203125 
z
" id="SourceSansPro-Regular-53"/>
       </defs>
       <use xlink:href="#SourceSansPro-Regular-53"/>
       <use x="49.699997" xlink:href="#SourceSansPro-Regular-48"/>
       <use x="99.399994" xlink:href="#SourceSansPro-Regular-48"/>
       <use x="149.099991" xlink:href="#SourceSansPro-Regular-48"/>
       <use x="198.799988" xlink:href="#SourceSansPro-Regular-48"/>
       <use x="248.499985" xlink:href="#SourceSansPro-Regular-48"/>
      </g>
     </g>
    </g>
    <g id="text_7">
     <!-- Episode -->
     <g style="fill:#262626;" transform="translate(216.113438 339.715719)scale(0.12 -0.12)">
      <defs>
       <path d="M 9 0 
L 47.796875 0 
L 47.796875 7.09375 
L 17.40625 7.09375 
L 17.40625 30.90625 
L 42.203125 30.90625 
L 42.203125 38 
L 17.40625 38 
L 17.40625 58.5 
L 46.796875 58.5 
L 46.796875 65.59375 
L 9 65.59375 
z
" id="SourceSansPro-Regular-69"/>
       <path d="M 8.203125 -20.5 
L 16.5 -20.5 
L 16.5 -4.09375 
L 16.296875 4.40625 
C 20.703125 0.90625 25.296875 -1.203125 29.703125 -1.203125 
C 40.796875 -1.203125 50.796875 8.5 50.796875 25 
C 50.796875 40.09375 44 49.796875 31.5 49.796875 
C 25.90625 49.796875 20.40625 46.703125 16 43 
L 15.703125 43 
L 15 48.59375 
L 8.203125 48.59375 
z
M 28.296875 5.796875 
C 25.09375 5.796875 20.90625 7.09375 16.5 10.796875 
L 16.5 36.203125 
C 21.203125 40.59375 25.296875 42.796875 29.40625 42.796875 
C 38.5 42.796875 42.203125 35.703125 42.203125 25 
C 42.203125 13 36.296875 5.796875 28.296875 5.796875 
z
" id="SourceSansPro-Regular-112"/>
       <path d="M 8.203125 0 
L 16.5 0 
L 16.5 48.59375 
L 8.203125 48.59375 
z
M 12.40625 58.59375 
C 15.59375 58.59375 17.90625 60.703125 17.90625 64 
C 17.90625 67.203125 15.59375 69.40625 12.40625 69.40625 
C 9.203125 69.40625 6.90625 67.203125 6.90625 64 
C 6.90625 60.703125 9.203125 58.59375 12.40625 58.59375 
z
" id="SourceSansPro-Regular-105"/>
       <path d="M 20.90625 -1.203125 
C 32.40625 -1.203125 38.703125 5.40625 38.703125 13.296875 
C 38.703125 22.09375 31.40625 25.40625 23.796875 28.09375 
C 17.703125 30.203125 13.5 32 13.5 36.40625 
C 13.5 40 16.203125 43.40625 22.40625 43.40625 
C 26.703125 43.40625 30.203125 42 33.59375 39.5 
L 37.40625 44.296875 
C 33.59375 47.5 28.40625 49.796875 22.296875 49.796875 
C 11.703125 49.796875 5.5 43.796875 5.5 36 
C 5.5 28 12.5 24.5 19.796875 21.90625 
C 25.296875 19.90625 30.703125 17.796875 30.703125 12.796875 
C 30.703125 8.59375 27.59375 5.296875 21.203125 5.296875 
C 15.203125 5.296875 10.796875 7.09375 6.59375 10.59375 
L 2.796875 5.796875 
C 7.296875 1.40625 13.796875 -1.203125 20.90625 -1.203125 
z
" id="SourceSansPro-Regular-115"/>
       <path d="M 27.09375 -1.203125 
C 39 -1.203125 49.703125 8.09375 49.703125 24.203125 
C 49.703125 40.5 39 49.796875 27.09375 49.796875 
C 15.203125 49.796875 4.59375 40.5 4.59375 24.203125 
C 4.59375 8.09375 15.203125 -1.203125 27.09375 -1.203125 
z
M 27.09375 5.703125 
C 18.796875 5.703125 13.203125 13.09375 13.203125 24.203125 
C 13.203125 35.40625 18.796875 42.90625 27.09375 42.90625 
C 35.5 42.90625 41.09375 35.40625 41.09375 24.203125 
C 41.09375 13.09375 35.5 5.703125 27.09375 5.703125 
z
" id="SourceSansPro-Regular-111"/>
       <path d="M 24.796875 -1.203125 
C 30.5 -1.203125 35.703125 2 39.5 5.703125 
L 39.796875 5.703125 
L 40.5 0 
L 47.296875 0 
L 47.296875 71.203125 
L 39 71.203125 
L 39 52.5 
L 39.40625 44.203125 
C 35.09375 47.703125 31.40625 49.796875 25.796875 49.796875 
C 14.703125 49.796875 4.703125 40 4.703125 24.203125 
C 4.703125 8 12.59375 -1.203125 24.796875 -1.203125 
z
M 26.59375 5.796875 
C 18.09375 5.796875 13.296875 12.703125 13.296875 24.296875 
C 13.296875 35.40625 19.5 42.796875 27.203125 42.796875 
C 31.203125 42.796875 34.90625 41.5 39 37.796875 
L 39 12.40625 
C 35 8 31.09375 5.796875 26.59375 5.796875 
z
" id="SourceSansPro-Regular-100"/>
       <path d="M 27.796875 -1.203125 
C 34.5 -1.203125 39.703125 0.796875 43.90625 3.796875 
L 41 9.09375 
C 37.59375 6.796875 33.5 5.5 28.796875 5.5 
C 19.59375 5.5 13.5 12.09375 12.796875 22.09375 
L 45.5 22.09375 
C 45.796875 23.703125 45.90625 25.203125 45.90625 27 
C 45.90625 41 38.796875 49.796875 26.40625 49.796875 
C 15.296875 49.796875 4.59375 40.09375 4.59375 24.296875 
C 4.59375 8.203125 14.796875 -1.203125 27.796875 -1.203125 
z
M 12.796875 28.5 
C 13.796875 37.796875 19.796875 43.203125 26.59375 43.203125 
C 34 43.203125 38.5 38.09375 38.5 28.5 
z
" id="SourceSansPro-Regular-101"/>
      </defs>
      <use xlink:href="#SourceSansPro-Regular-69"/>
      <use x="52.699997" xlink:href="#SourceSansPro-Regular-112"/>
      <use x="108.199982" xlink:href="#SourceSansPro-Regular-105"/>
      <use x="132.899979" xlink:href="#SourceSansPro-Regular-115"/>
      <use x="174.799973" xlink:href="#SourceSansPro-Regular-111"/>
      <use x="228.999969" xlink:href="#SourceSansPro-Regular-100"/>
      <use x="284.499954" xlink:href="#SourceSansPro-Regular-101"/>
     </g>
    </g>
   </g>
   <g id="matplotlib.axis_2">
    <g id="ytick_1">
     <g id="line2d_7">
      <path clip-path="url(#p97f53e1780)" d="M 57.6 295.488 
L 414.72 295.488 
" style="fill:none;stroke:#ffffff;stroke-linecap:round;"/>
     </g>
     <g id="text_8">
      <!-- −1.00 -->
      <g style="fill:#262626;" transform="translate(23.480625 299.404172)scale(0.11 -0.11)">
       <defs>
        <path d="M 3.40625 29.90625 
L 46.296875 29.90625 
L 46.296875 36.09375 
L 3.40625 36.09375 
z
" id="SourceSansPro-Regular-8722"/>
        <path d="M 12.5 -1.203125 
C 15.796875 -1.203125 18.5 1.40625 18.5 5.09375 
C 18.5 8.90625 15.796875 11.5 12.5 11.5 
C 9.203125 11.5 6.5 8.90625 6.5 5.09375 
C 6.5 1.40625 9.203125 -1.203125 12.5 -1.203125 
z
" id="SourceSansPro-Regular-46"/>
       </defs>
       <use xlink:href="#SourceSansPro-Regular-8722"/>
       <use x="49.699997" xlink:href="#SourceSansPro-Regular-49"/>
       <use x="99.399994" xlink:href="#SourceSansPro-Regular-46"/>
       <use x="124.399979" xlink:href="#SourceSansPro-Regular-48"/>
       <use x="174.099976" xlink:href="#SourceSansPro-Regular-48"/>
      </g>
     </g>
    </g>
    <g id="ytick_2">
     <g id="line2d_8">
      <path clip-path="url(#p97f53e1780)" d="M 57.6 265.248 
L 414.72 265.248 
" style="fill:none;stroke:#ffffff;stroke-linecap:round;"/>
     </g>
     <g id="text_9">
      <!-- −0.75 -->
      <g style="fill:#262626;" transform="translate(23.480625 269.164172)scale(0.11 -0.11)">
       <defs>
        <path d="M 17.09375 0 
L 25.59375 0 
C 26.703125 24.90625 30.203125 39.296875 45.5 58.703125 
L 45.5 63.796875 
L 4.40625 63.796875 
L 4.40625 56.59375 
L 36.203125 56.59375 
C 23.296875 39 18.203125 24 17.09375 0 
z
" id="SourceSansPro-Regular-55"/>
       </defs>
       <use xlink:href="#SourceSansPro-Regular-8722"/>
       <use x="49.699997" xlink:href="#SourceSansPro-Regular-48"/>
       <use x="99.399994" xlink:href="#SourceSansPro-Regular-46"/>
       <use x="124.399979" xlink:href="#SourceSansPro-Regular-55"/>
       <use x="174.099976" xlink:href="#SourceSansPro-Regular-53"/>
      </g>
     </g>
    </g>
    <g id="ytick_3">
     <g id="line2d_9">
      <path clip-path="url(#p97f53e1780)" d="M 57.6 235.008 
L 414.72 235.008 
" style="fill:none;stroke:#ffffff;stroke-linecap:round;"/>
     </g>
     <g id="text_10">
      <!-- −0.50 -->
      <g style="fill:#262626;" transform="translate(23.480625 238.924172)scale(0.11 -0.11)">
       <use xlink:href="#SourceSansPro-Regular-8722"/>
       <use x="49.699997" xlink:href="#SourceSansPro-Regular-48"/>
       <use x="99.399994" xlink:href="#SourceSansPro-Regular-46"/>
       <use x="124.399979" xlink:href="#SourceSansPro-Regular-53"/>
       <use x="174.099976" xlink:href="#SourceSansPro-Regular-48"/>
      </g>
     </g>
    </g>
    <g id="ytick_4">
     <g id="line2d_10">
      <path clip-path="url(#p97f53e1780)" d="M 57.6 204.768 
L 414.72 204.768 
" style="fill:none;stroke:#ffffff;stroke-linecap:round;"/>
     </g>
     <g id="text_11">
      <!-- −0.25 -->
      <g style="fill:#262626;" transform="translate(23.480625 208.684172)scale(0.11 -0.11)">
       <use xlink:href="#SourceSansPro-Regular-8722"/>
       <use x="49.699997" xlink:href="#SourceSansPro-Regular-48"/>
       <use x="99.399994" xlink:href="#SourceSansPro-Regular-46"/>
       <use x="124.399979" xlink:href="#SourceSansPro-Regular-50"/>
       <use x="174.099976" xlink:href="#SourceSansPro-Regular-53"/>
      </g>
     </g>
    </g>
    <g id="ytick_5">
     <g id="line2d_11">
      <path clip-path="url(#p97f53e1780)" d="M 57.6 174.528 
L 414.72 174.528 
" style="fill:none;stroke:#ffffff;stroke-linecap:round;"/>
     </g>
     <g id="text_12">
      <!-- 0.00 -->
      <g style="fill:#262626;" transform="translate(28.947969 178.444172)scale(0.11 -0.11)">
       <use xlink:href="#SourceSansPro-Regular-48"/>
       <use x="49.699997" xlink:href="#SourceSansPro-Regular-46"/>
       <use x="74.699982" xlink:href="#SourceSansPro-Regular-48"/>
       <use x="124.399979" xlink:href="#SourceSansPro-Regular-48"/>
      </g>
     </g>
    </g>
    <g id="ytick_6">
     <g id="line2d_12">
      <path clip-path="url(#p97f53e1780)" d="M 57.6 144.288 
L 414.72 144.288 
" style="fill:none;stroke:#ffffff;stroke-linecap:round;"/>
     </g>
     <g id="text_13">
      <!-- 0.25 -->
      <g style="fill:#262626;" transform="translate(28.947969 148.204172)scale(0.11 -0.11)">
       <use xlink:href="#SourceSansPro-Regular-48"/>
       <use x="49.699997" xlink:href="#SourceSansPro-Regular-46"/>
       <use x="74.699982" xlink:href="#SourceSansPro-Regular-50"/>
       <use x="124.399979" xlink:href="#SourceSansPro-Regular-53"/>
      </g>
     </g>
    </g>
    <g id="ytick_7">
     <g id="line2d_13">
      <path clip-path="url(#p97f53e1780)" d="M 57.6 114.048 
L 414.72 114.048 
" style="fill:none;stroke:#ffffff;stroke-linecap:round;"/>
     </g>
     <g id="text_14">
      <!-- 0.50 -->
      <g style="fill:#262626;" transform="translate(28.947969 117.964172)scale(0.11 -0.11)">
       <use xlink:href="#SourceSansPro-Regular-48"/>
       <use x="49.699997" xlink:href="#SourceSansPro-Regular-46"/>
       <use x="74.699982" xlink:href="#SourceSansPro-Regular-53"/>
       <use x="124.399979" xlink:href="#SourceSansPro-Regular-48"/>
      </g>
     </g>
    </g>
    <g id="ytick_8">
     <g id="line2d_14">
      <path clip-path="url(#p97f53e1780)" d="M 57.6 83.808 
L 414.72 83.808 
" style="fill:none;stroke:#ffffff;stroke-linecap:round;"/>
     </g>
     <g id="text_15">
      <!-- 0.75 -->
      <g style="fill:#262626;" transform="translate(28.947969 87.724172)scale(0.11 -0.11)">
       <use xlink:href="#SourceSansPro-Regular-48"/>
       <use x="49.699997" xlink:href="#SourceSansPro-Regular-46"/>
       <use x="74.699982" xlink:href="#SourceSansPro-Regular-55"/>
       <use x="124.399979" xlink:href="#SourceSansPro-Regular-53"/>
      </g>
     </g>
    </g>
    <g id="ytick_9">
     <g id="line2d_15">
      <path clip-path="url(#p97f53e1780)" d="M 57.6 53.568 
L 414.72 53.568 
" style="fill:none;stroke:#ffffff;stroke-linecap:round;"/>
     </g>
     <g id="text_16">
      <!-- 1.00 -->
      <g style="fill:#262626;" transform="translate(28.947969 57.484172)scale(0.11 -0.11)">
       <use xlink:href="#SourceSansPro-Regular-49"/>
       <use x="49.699997" xlink:href="#SourceSansPro-Regular-46"/>
       <use x="74.699982" xlink:href="#SourceSansPro-Regular-48"/>
       <use x="124.399979" xlink:href="#SourceSansPro-Regular-48"/>
      </g>
     </g>
    </g>
    <g id="text_17">
     <!-- Reward -->
     <g style="fill:#262626;" transform="translate(17.020625 193.673625)rotate(-90)scale(0.12 -0.12)">
      <defs>
       <path d="M 9 0 
L 17.40625 0 
L 17.40625 27.703125 
L 29.203125 27.703125 
L 45 0 
L 54.5 0 
L 37.796875 28.59375 
C 46.703125 30.90625 52.5 36.90625 52.5 47.09375 
C 52.5 60.796875 42.90625 65.59375 29.5 65.59375 
L 9 65.59375 
z
M 17.40625 34.5 
L 17.40625 58.796875 
L 28.296875 58.796875 
C 38.5 58.796875 44.09375 55.703125 44.09375 47.09375 
C 44.09375 38.703125 38.5 34.5 28.296875 34.5 
z
" id="SourceSansPro-Regular-82"/>
       <path d="M 16 0 
L 26 0 
L 32.5 26.09375 
C 33.796875 30.5 34.703125 34.796875 35.59375 40.5 
L 36 40.5 
C 37.09375 34.796875 38 30.59375 39.203125 26.09375 
L 45.796875 0 
L 56.296875 0 
L 69.40625 48.59375 
L 61.5 48.59375 
L 54.40625 20.40625 
C 53.296875 16 52.5 11.796875 51.5 6.59375 
L 51.09375 6.59375 
C 50.09375 11.796875 49 16 47.90625 20.40625 
L 40.5 48.59375 
L 31.59375 48.59375 
L 24.296875 20.40625 
C 23.203125 16 22.296875 11.796875 21.296875 6.59375 
L 20.90625 6.59375 
C 20.09375 11.796875 19.09375 16 18 20.40625 
L 10.90625 48.59375 
L 2.40625 48.59375 
z
" id="SourceSansPro-Regular-119"/>
       <path d="M 19.40625 -1.203125 
C 25.5 -1.203125 30.796875 1.90625 35.40625 5.796875 
L 35.703125 5.796875 
L 36.5 0 
L 43.296875 0 
L 43.296875 29.90625 
C 43.296875 41.90625 38.203125 49.796875 26.40625 49.796875 
C 18.59375 49.796875 11.796875 46.5 7.296875 43.5 
L 10.5 37.90625 
C 14.296875 40.40625 19.40625 42.90625 25 42.90625 
C 32.90625 42.90625 34.90625 37 35 30.90625 
C 14.203125 28.59375 5.203125 23.40625 5.203125 12.59375 
C 5.203125 3.796875 11.296875 -1.203125 19.40625 -1.203125 
z
M 21.703125 5.59375 
C 17 5.59375 13.296875 7.703125 13.296875 13.09375 
C 13.296875 19.40625 18.59375 23.09375 35 25 
L 35 11.796875 
C 30.296875 7.703125 26.40625 5.59375 21.703125 5.59375 
z
" id="SourceSansPro-Regular-97"/>
       <path d="M 8.203125 0 
L 16.5 0 
L 16.5 31.203125 
C 19.796875 39.40625 24.703125 42.296875 28.796875 42.296875 
C 30.703125 42.296875 31.796875 42.09375 33.203125 41.703125 
L 35 48.796875 
C 33.5 49.5 32 49.796875 29.796875 49.796875 
C 24.40625 49.796875 19.40625 45.90625 16 39.796875 
L 15.703125 39.796875 
L 15 48.59375 
L 8.203125 48.59375 
z
" id="SourceSansPro-Regular-114"/>
      </defs>
      <use xlink:href="#SourceSansPro-Regular-82"/>
      <use x="56.999985" xlink:href="#SourceSansPro-Regular-101"/>
      <use x="106.599976" xlink:href="#SourceSansPro-Regular-119"/>
      <use x="178.399963" xlink:href="#SourceSansPro-Regular-97"/>
      <use x="228.799957" xlink:href="#SourceSansPro-Regular-114"/>
      <use x="263.599945" xlink:href="#SourceSansPro-Regular-100"/>
     </g>
    </g>
   </g>
   <g id="line2d_16">
    <path clip-path="url(#p97f53e1780)" d="M 73.832727 226.03706 
L 73.896991 281.996415 
L 74.154623 284.99178 
L 74.494465 286.638545 
L 74.591729 291.015584 
L 74.853413 290.405003 
L 75.038098 295.488 
L 75.188624 276.452741 
L 75.22973 279.030376 
L 75.315414 281.40777 
L 75.398783 270.369251 
L 75.468835 276.24375 
L 75.641941 268.9531 
L 75.669151 270.644965 
L 75.725309 269.512786 
L 75.777994 272.859761 
L 75.819678 267.405907 
L 75.845731 268.025431 
L 75.953994 263.717305 
L 76.107994 263.879305 
L 76.142152 261.157217 
L 76.211626 261.249587 
L 76.252152 263.942841 
L 76.490679 239.370055 
L 76.587363 244.852092 
L 76.644679 241.954076 
L 76.757574 241.997562 
L 76.976996 228.425074 
L 76.986838 231.13213 
L 77.202207 217.262391 
L 77.331891 225.46484 
L 77.345786 222.721481 
L 77.54726 224.443198 
L 77.711681 191.614055 
L 77.747576 194.348791 
L 77.763208 197.064072 
L 77.809523 186.10483 
L 77.823418 186.077588 
L 77.895787 177.870109 
L 77.908524 180.587539 
L 78.104208 179.552427 
L 78.211314 182.312 
L 78.346787 172.389749 
L 78.363577 177.829096 
L 78.397735 164.205608 
L 78.442893 175.086185 
L 78.549419 167.931925 
L 78.565051 167.93283 
L 78.748578 161.55964 
L 78.761893 164.196725 
L 78.822104 172.356315 
L 78.783893 164.193208 
L 78.862052 166.912681 
L 78.958736 158.74546 
L 78.932683 172.346302 
L 78.994052 161.46016 
L 79.093631 166.913003 
L 79.108105 164.191915 
L 79.217526 148.816667 
L 79.284105 154.258178 
L 79.318842 154.256555 
L 79.354737 143.380168 
L 79.460105 146.133957 
L 79.484421 146.15066 
L 79.522632 151.59351 
L 79.560263 135.259968 
L 79.570105 135.258298 
L 79.647105 140.6807 
L 79.624526 132.523168 
L 79.672579 137.954589 
L 79.729895 124.35833 
L 79.805158 132.474972 
L 79.816158 132.456768 
L 79.841632 121.572348 
L 79.937159 121.573809 
L 79.968422 121.577274 
L 80.059896 127.017575 
L 80.102738 110.699836 
L 80.194791 116.147795 
L 80.141527 107.986187 
L 80.20637 113.426166 
L 80.402054 83.502484 
L 80.43158 86.221756 
L 80.445475 86.22246 
L 80.52537 78.057426 
L 80.548528 83.49625 
L 80.659107 88.939681 
L 80.671265 86.220727 
L 80.725107 94.385077 
L 80.764476 99.824014 
L 80.801528 91.663003 
L 80.813686 94.382362 
L 80.972897 83.495878 
L 80.984476 83.495719 
L 81.129213 64.450209 
L 81.166266 72.610177 
L 81.265845 72.608863 
L 81.316792 72.610456 
L 81.415793 67.170656 
L 81.427951 69.890606 
L 81.454003 72.612328 
L 81.478319 64.452473 
L 81.514793 67.172256 
L 81.621319 59.010396 
L 81.643319 61.728042 
L 81.668214 61.728334 
L 81.741741 59.006877 
L 81.79153 59.007421 
L 81.803109 59.007421 
L 81.814688 53.568 
L 81.865057 59.009267 
L 81.900372 59.009174 
L 81.959425 56.289935 
L 82.017899 61.738372 
L 82.031215 61.73889 
L 82.054373 59.018309 
L 82.125583 64.455646 
L 82.137162 61.73644 
L 82.162636 67.176698 
L 82.174215 61.73557 
L 82.197373 61.73557 
L 82.197952 295.488 
L 82.197952 295.488 
" style="fill:none;stroke:#60ceac;stroke-linecap:round;stroke-width:1.5;"/>
   </g>
   <g id="line2d_17">
    <path clip-path="url(#p97f53e1780)" d="M 82.197373 295.488 
L 82.879374 291.329313 
L 83.561375 292.322193 
L 84.244534 291.098836 
L 84.927693 291.678599 
L 85.610852 290.392166 
L 86.294011 291.202188 
L 86.97717 291.576602 
L 87.815488 290.530664 
L 88.498647 290.209283 
L 89.181806 290.643229 
L 89.741649 286.044058 
L 90.424808 284.11769 
L 91.788231 285.48341 
L 92.470811 285.545207 
L 93.26397 286.042344 
L 93.947129 286.206854 
L 94.630289 286.690147 
L 98.044926 287.819555 
L 98.726927 287.595373 
L 99.564665 287.574825 
L 100.247824 287.900556 
L 100.930983 287.472112 
L 102.294986 287.565268 
L 102.977566 288.036471 
L 103.660725 287.658103 
L 104.343884 287.674954 
L 105.864781 288.174163 
L 106.54794 287.346408 
L 107.231099 289.541482 
L 107.914258 290.86594 
L 108.597417 289.96225 
L 109.279418 290.000697 
L 109.962577 290.195824 
L 110.80321 290.044927 
L 111.486369 289.737428 
L 112.169529 289.203878 
L 112.85153 288.84396 
L 113.534689 288.898592 
L 114.217848 289.090149 
L 114.829796 286.630833 
L 116.196114 286.220083 
L 116.9308 284.932703 
L 117.613959 284.815328 
L 118.297118 284.920293 
L 118.979698 284.689866 
L 119.662857 284.293459 
L 120.346016 283.491599 
L 121.029175 283.546884 
L 122.551809 283.205479 
L 123.234389 282.468487 
L 123.917548 282.742183 
L 124.600707 282.840341 
L 125.282708 282.780797 
L 125.963552 282.993208 
L 126.645553 282.013392 
L 127.328133 281.599866 
L 128.127661 279.544185 
L 128.81082 279.533182 
L 129.317978 275.092815 
L 130.684296 275.073009 
L 131.367456 274.930519 
L 132.050615 276.365648 
L 132.733774 275.330559 
L 133.416933 275.173163 
L 134.131934 275.928004 
L 134.812777 275.582327 
L 135.495936 275.744853 
L 136.179095 275.647245 
L 136.861096 275.022292 
L 137.428466 272.948956 
L 138.111625 273.050018 
L 138.710257 270.830391 
L 139.393416 270.870783 
L 140.003049 269.42025 
L 140.686208 269.17552 
L 141.36763 268.541035 
L 142.05021 268.329519 
L 142.733369 268.787301 
L 143.416528 269.489953 
L 144.099687 269.332378 
L 144.782846 270.303891 
L 145.540111 270.185608 
L 146.22327 274.458241 
L 146.904113 274.218129 
L 147.587272 273.467216 
L 148.172589 270.505351 
L 148.855748 270.551628 
L 149.538907 270.99082 
L 150.222066 270.935625 
L 150.905225 269.871084 
L 152.353754 268.083228 
L 153.036913 267.863638 
L 153.720072 267.196528 
L 154.403231 268.776131 
L 155.08639 268.089228 
L 155.768391 269.746531 
L 156.450392 269.446389 
L 157.289289 270.591048 
L 157.972448 270.710777 
L 158.654449 271.192151 
L 159.210818 268.338859 
L 159.893977 267.891876 
L 160.395925 262.888979 
L 161.077348 262.933951 
L 161.760507 263.451009 
L 163.250141 263.776677 
L 163.871931 262.523304 
L 164.553932 262.467303 
L 165.756408 258.406327 
L 166.439567 258.355239 
L 167.122726 258.655138 
L 167.660569 257.293065 
L 169.039624 256.465834 
L 169.722783 256.678271 
L 171.086206 258.309614 
L 173.817685 259.024818 
L 174.65716 258.752158 
L 175.340319 257.615764 
L 176.023478 260.407094 
L 176.705479 260.42182 
L 177.388638 264.514885 
L 178.449271 258.888802 
L 179.086694 257.320778 
L 179.634958 254.749037 
L 180.287432 253.354774 
L 180.970591 253.592774 
L 181.653751 258.072126 
L 182.33691 260.783427 
L 183.020069 260.898653 
L 183.685859 259.264367 
L 184.369018 262.163937 
L 185.895705 265.193407 
L 186.485074 263.216016 
L 187.168233 263.86245 
L 187.850235 263.560158 
L 188.370709 259.482856 
L 189.053868 259.208647 
L 189.737027 258.384154 
L 190.295712 255.341173 
L 191.100451 245.613836 
L 191.855978 243.370508 
L 192.392084 240.14353 
L 192.933401 237.902127 
L 193.61656 239.681866 
L 194.171193 239.759207 
L 194.548667 235.843594 
L 194.813246 230.986784 
L 195.496405 232.731836 
L 195.733195 225.087663 
L 196.416354 224.736067 
L 196.944934 220.783427 
L 197.645462 219.775943 
L 199.660202 204.967581 
L 200.187624 203.758004 
L 200.870783 202.478518 
L 201.138257 195.133966 
L 201.622837 194.319551 
L 202.305996 193.856028 
L 202.901734 192.207771 
L 203.494577 191.01955 
L 204.023157 192.630598 
L 204.564473 195.447734 
L 205.062948 193.011316 
L 205.746107 195.202041 
L 206.428108 197.956632 
L 207.00474 196.898066 
L 207.6879 198.462386 
L 209.224428 209.663784 
L 209.640692 205.213866 
L 210.070272 207.543038 
L 210.451799 202.583611 
L 210.995431 201.239226 
L 211.397801 197.33252 
L 211.928117 197.212609 
L 212.610118 199.250697 
L 213.138119 198.976143 
L 213.510962 196.680146 
L 214.192384 199.618944 
L 214.433806 192.831143 
L 214.688543 192.162287 
L 215.245491 193.816397 
L 215.748597 190.013595 
L 216.431177 191.212067 
L 216.955126 191.603958 
L 217.583864 191.632169 
L 218.113022 190.801541 
L 218.495128 189.747565 
L 219.039919 186.992133 
L 219.567341 183.351074 
L 220.249342 183.658666 
L 220.973027 183.581609 
L 221.655607 182.303178 
L 222.202713 179.584885 
L 222.73303 181.390884 
L 223.111662 181.011269 
L 223.485084 180.948244 
L 224.167085 184.547406 
L 224.693349 185.687225 
L 225.37535 189.176947 
L 225.902193 186.469993 
L 226.275036 182.737892 
L 226.813458 184.486991 
L 227.34088 180.494752 
L 228.310039 186.940617 
L 228.36504 180.022404 
L 228.734409 178.499842 
L 228.943988 171.575558 
L 229.470831 171.224465 
L 229.8402 169.28808 
L 230.048042 164.663716 
L 230.418569 164.050811 
L 230.634517 160.245494 
L 230.692991 153.701979 
L 230.904307 147.286368 
L 231.277729 143.440135 
L 231.494255 137.001197 
L 231.55794 130.580214 
L 231.929046 128.315516 
L 232.435625 121.923368 
L 232.554889 106.598161 
L 232.941047 103.000845 
L 233.247311 75.246484 
L 233.470785 72.939874 
L 233.843049 77.444936 
L 233.901523 73.264185 
L 234.118049 73.280408 
L 234.17826 67.426484 
L 234.39826 65.193557 
L 234.634471 56.520442 
L 234.849261 56.493357 
L 235.219788 55.728223 
L 235.326314 53.568 
L 235.695104 53.762557 
L 235.909894 55.603536 
L 236.126421 55.704112 
L 237.033054 67.317009 
L 237.558739 69.042 
L 238.89032 84.852069 
L 239.476216 91.385131 
L 239.846164 92.783757 
L 240.281533 93.064014 
L 240.494007 95.423743 
L 240.705902 96.045122 
L 240.918376 98.464636 
L 241.524535 102.659191 
L 242.06701 109.39465 
L 243.360381 130.19072 
L 243.414223 130.163249 
L 243.790539 132.751869 
L 244.001855 130.518665 
L 244.744646 138.999368 
L 245.113436 139.436761 
L 245.6397 143.749358 
L 245.852174 143.60253 
L 246.413754 137.682196 
L 247.113124 121.358179 
L 247.483651 121.212491 
L 247.854178 123.83578 
L 248.219494 124.691042 
L 248.278547 119.937536 
L 248.709863 118.958283 
L 248.825653 109.848197 
L 249.200232 108.126708 
L 249.595075 102.193349 
L 249.705075 92.240426 
L 249.916392 89.497849 
L 250.284603 91.559153 
L 250.501708 88.861068 
L 250.869341 89.59927 
L 251.090499 86.733324 
L 251.307025 82.131991 
L 251.832711 86.633682 
L 252.200922 87.436341 
L 252.255922 85.183577 
L 252.466659 85.331921 
L 252.680291 85.02327 
L 252.891607 85.115882 
L 253.26445 89.839132 
L 253.633819 90.055446 
L 253.845135 87.466696 
L 253.90303 82.766412 
L 254.428715 88.921432 
L 254.48661 86.965548 
L 254.859452 89.253778 
L 255.135611 91.493684 
L 255.13619 96.169651 
L 255.13619 96.169651 
" style="fill:none;stroke:#3497a9;stroke-linecap:round;stroke-width:1.5;"/>
   </g>
   <g id="line2d_18">
    <path clip-path="url(#p97f53e1780)" d="M 255.135611 96.169651 
L 255.667085 277.301677 
L 255.991296 282.876274 
L 256.291771 285.339421 
L 256.529718 295.488 
L 256.632192 280.166031 
L 256.724824 270.940789 
L 257.002719 258.146834 
L 257.120246 237.991873 
L 257.372088 233.188398 
L 257.571825 224.499949 
L 257.990405 214.131099 
L 258.120668 202.751103 
L 258.236458 202.428291 
L 258.51609 194.784138 
L 258.942775 183.779091 
L 259.073038 177.478456 
L 259.213723 171.975649 
L 259.321407 173.248954 
L 259.548355 165.638413 
L 259.687882 161.348067 
L 259.754461 157.93773 
L 259.966935 152.318907 
L 260.108198 148.937786 
L 260.530251 143.698531 
L 261.013094 136.305219 
L 261.195463 118.475692 
L 261.592622 104.669132 
L 261.770359 98.901626 
L 262.007728 89.404716 
L 262.257254 88.942849 
L 262.63936 85.200283 
L 262.870361 78.945251 
L 263.089782 81.436806 
L 263.31094 79.943201 
L 263.644994 76.409156 
L 264.001047 74.893222 
L 264.198468 77.798229 
L 264.491995 68.770108 
L 264.581153 72.849238 
L 264.720101 78.767352 
L 264.950522 75.843135 
L 265.161838 77.246338 
L 265.521365 72.473687 
L 265.697365 77.494579 
L 265.943418 73.06981 
L 266.077156 81.112481 
L 266.308156 86.722408 
L 266.527577 88.291553 
L 266.726736 87.905156 
L 266.855841 98.104826 
L 267.048052 103.59954 
L 267.299315 104.225932 
L 267.486316 99.009679 
L 267.633369 106.160657 
L 267.897948 102.291277 
L 268.038633 109.158028 
L 268.214633 109.664292 
L 268.361686 110.227099 
L 268.629739 101.925059 
L 268.956266 103.103507 
L 269.209266 103.44104 
L 269.408424 100.49095 
L 269.755214 106.834235 
L 270.174952 107.738876 
L 270.6659 104.653773 
L 270.93569 115.248133 
L 271.384954 112.349246 
L 271.509428 116.274461 
L 271.793112 120.006371 
L 271.991692 132.867862 
L 272.450798 127.147921 
L 272.870535 120.702939 
L 273.334852 123.515015 
L 273.9468 128.41852 
L 274.493328 126.109424 
L 274.727223 126.392919 
L 274.885855 141.338728 
L 274.944907 149.149284 
L 275.355961 138.778745 
L 275.764698 133.777796 
L 276.266067 128.768057 
L 276.439752 128.89825 
L 276.524857 125.758447 
L 276.56191 131.658579 
L 276.741963 131.728803 
L 276.766279 133.067145 
L 276.793489 134.641985 
L 276.857753 132.742466 
L 276.889595 128.128386 
L 276.955595 128.043536 
L 277.470859 115.876179 
L 277.859333 116.224156 
L 278.049807 109.944621 
L 278.581861 102.700972 
L 279.208862 91.776639 
L 279.659284 90.028886 
L 279.896652 92.053613 
L 280.227232 84.57727 
L 280.552022 84.725775 
L 280.891865 78.208089 
L 281.219549 74.815012 
L 281.415234 63.912063 
L 281.886498 53.568 
L 282.247183 56.503889 
L 282.60092 63.476755 
L 283.141658 65.49359 
L 283.705554 69.578179 
L 283.741448 70.683048 
L 283.742027 286.458005 
" style="fill:none;stroke:#395d9c;stroke-linecap:round;stroke-width:1.5;"/>
   </g>
   <g id="line2d_19">
    <path clip-path="url(#p97f53e1780)" d="M 283.741448 286.458005 
L 284.320397 295.488 
L 284.899345 293.48905 
L 285.478293 284.916339 
L 286.057242 294.532798 
L 286.63619 286.661782 
L 287.215138 288.202386 
L 287.794087 288.912723 
L 288.373035 288.835549 
L 288.951983 284.738945 
L 289.530932 279.578049 
L 290.10988 273.406989 
L 290.688828 273.908394 
L 291.267777 274.982011 
L 291.846725 274.309806 
L 292.425673 279.255706 
L 293.004622 281.140183 
L 293.58357 280.628619 
L 294.162519 279.331667 
L 294.741467 279.743693 
L 295.320415 281.558274 
L 295.899364 281.990389 
L 296.478312 282.270809 
L 297.05726 283.381042 
L 297.636209 285.537676 
L 298.794105 287.964798 
L 299.373054 287.714323 
L 299.952002 289.878917 
L 300.53095 289.197312 
L 301.109899 291.324001 
L 301.688847 288.473027 
L 302.267795 287.355289 
L 302.846744 284.861074 
L 303.425692 284.145203 
L 304.00464 283.673061 
L 304.583589 284.733638 
L 305.162537 284.396664 
L 305.741485 284.368235 
L 306.320434 283.429863 
L 306.798066 254.932169 
L 307.377014 251.318245 
L 307.955963 250.174656 
L 308.534911 251.539989 
L 309.113859 248.416023 
L 309.692808 244.332762 
L 310.271756 242.632502 
L 310.850704 239.142452 
L 311.429653 238.252749 
L 312.587549 230.749637 
L 313.166498 225.825343 
L 313.745446 223.093996 
L 314.324394 220.982242 
L 315.482291 209.410651 
L 316.06124 208.509502 
L 316.640188 206.367878 
L 317.219136 208.49252 
L 317.798085 207.562715 
L 318.301191 196.378891 
L 318.793297 181.532398 
L 319.372245 179.142877 
L 319.951193 175.845004 
L 320.530142 175.354212 
L 321.10909 198.762954 
L 322.845935 193.825242 
L 323.424883 191.282964 
L 324.003832 192.47962 
L 324.58278 185.403392 
L 325.161728 184.161175 
L 325.740677 180.214219 
L 326.319625 179.484627 
L 326.898574 179.618279 
L 327.416732 167.910156 
L 327.995681 168.196337 
L 328.574629 163.386971 
L 329.153577 161.551012 
L 329.732526 159.336687 
L 330.311474 158.326674 
L 330.890422 156.048897 
L 331.469371 151.254465 
L 332.048319 148.806873 
L 333.206216 171.772507 
L 333.785164 170.596017 
L 334.364112 168.283139 
L 334.828429 152.770355 
L 335.407377 151.561266 
L 335.986326 154.152593 
L 336.565274 152.047965 
L 337.048696 136.483478 
L 337.627644 136.707875 
L 338.206593 132.623477 
L 338.666277 122.176675 
L 339.245226 124.319663 
L 339.824174 121.606661 
L 340.403123 122.876246 
L 340.982071 120.596649 
L 341.561019 132.251403 
L 342.139968 127.410727 
L 342.718916 125.511922 
L 343.16818 111.153112 
L 343.684602 100.415656 
L 344.125181 84.214672 
L 344.70413 80.884655 
L 345.14992 63.495657 
L 345.728868 64.718316 
L 346.307817 62.868863 
L 346.886765 62.774252 
L 347.465713 61.176715 
L 348.044662 60.600182 
L 348.62361 72.937299 
L 349.202558 72.261 
L 349.781507 69.744346 
L 350.360455 69.346042 
L 350.939403 83.371971 
L 351.518352 84.236884 
L 352.0973 87.656128 
L 352.676248 101.667501 
L 353.230881 89.648937 
L 353.671461 76.864847 
L 354.250409 71.128555 
L 354.829357 70.19693 
L 355.408306 67.452923 
L 355.987254 70.908632 
L 356.430728 57.06457 
L 357.009677 74.814726 
L 357.588625 87.695018 
L 358.167573 104.889792 
L 359.188259 106.567081 
L 359.767208 107.186295 
L 360.346156 109.079869 
L 360.925104 109.483935 
L 362.083001 115.302176 
L 362.661949 114.868014 
L 363.240898 115.441136 
L 363.819846 114.593508 
L 364.398794 116.352747 
L 364.977743 115.689564 
L 365.556691 114.451213 
L 366.135639 113.56659 
L 366.714588 114.814114 
L 367.872484 139.188519 
L 368.451433 142.173374 
L 369.030381 142.948301 
L 369.609329 143.130471 
L 370.188278 141.349854 
L 370.767226 157.743243 
L 371.346174 153.214751 
L 371.925123 151.022866 
L 372.504071 150.660041 
L 373.08302 148.485971 
L 373.661968 164.12187 
L 374.240916 160.555327 
L 374.819865 158.079686 
L 375.398813 158.352298 
L 375.977761 155.873928 
L 376.55671 156.037677 
L 377.135658 155.412398 
L 377.714606 156.47995 
L 378.293555 154.20384 
L 378.872503 153.73799 
L 380.0304 149.457624 
L 380.609348 145.250262 
L 381.188296 145.135865 
L 381.767245 143.414379 
L 382.346193 143.634682 
L 383.50409 138.580298 
L 384.083038 137.926137 
L 384.661986 138.19147 
L 385.240935 139.12863 
L 386.398831 144.935424 
L 386.97778 142.356455 
L 387.521412 134.344356 
L 388.100361 133.802393 
L 388.679309 136.295622 
L 389.258257 136.40168 
L 389.837206 136.035898 
L 390.416154 137.141885 
L 390.995102 134.697478 
L 391.574051 135.651694 
L 392.152999 132.080148 
L 392.731947 133.397721 
L 393.251264 119.939607 
L 394.132423 87.462662 
L 394.711372 90.161107 
L 395.29032 88.137216 
L 395.592531 55.650037 
L 396.750428 54.109584 
L 397.329376 55.445199 
L 397.908324 55.125207 
L 398.487273 53.568 
L 398.487273 53.568 
" style="fill:none;stroke:#382a54;stroke-linecap:round;stroke-width:1.5;"/>
   </g>
   <g id="line2d_20"/>
   <g id="line2d_21"/>
   <g id="line2d_22"/>
   <g id="line2d_23"/>
   <g id="patch_3">
    <path d="M 57.6 307.584 
L 57.6 41.472 
" style="fill:none;stroke:#ffffff;stroke-linecap:square;stroke-linejoin:miter;stroke-width:1.25;"/>
   </g>
   <g id="patch_4">
    <path d="M 414.72 307.584 
L 414.72 41.472 
" style="fill:none;stroke:#ffffff;stroke-linecap:square;stroke-linejoin:miter;stroke-width:1.25;"/>
   </g>
   <g id="patch_5">
    <path d="M 57.6 307.584 
L 414.72 307.584 
" style="fill:none;stroke:#ffffff;stroke-linecap:square;stroke-linejoin:miter;stroke-width:1.25;"/>
   </g>
   <g id="patch_6">
    <path d="M 57.6 41.472 
L 414.72 41.472 
" style="fill:none;stroke:#ffffff;stroke-linecap:square;stroke-linejoin:miter;stroke-width:1.25;"/>
   </g>
   <g id="text_18">
    <!-- Reward per episode -->
    <g style="fill:#262626;" transform="translate(186.360938 35.472)scale(0.12 -0.12)">
     <defs>
      <path id="SourceSansPro-Regular-32"/>
     </defs>
     <use xlink:href="#SourceSansPro-Regular-82"/>
     <use x="56.999985" xlink:href="#SourceSansPro-Regular-101"/>
     <use x="106.599976" xlink:href="#SourceSansPro-Regular-119"/>
     <use x="178.399963" xlink:href="#SourceSansPro-Regular-97"/>
     <use x="228.799957" xlink:href="#SourceSansPro-Regular-114"/>
     <use x="263.599945" xlink:href="#SourceSansPro-Regular-100"/>
     <use x="319.09993" xlink:href="#SourceSansPro-Regular-32"/>
     <use x="339.099915" xlink:href="#SourceSansPro-Regular-112"/>
     <use x="394.599899" xlink:href="#SourceSansPro-Regular-101"/>
     <use x="444.19989" xlink:href="#SourceSansPro-Regular-114"/>
     <use x="478.999878" xlink:href="#SourceSansPro-Regular-32"/>
     <use x="498.999863" xlink:href="#SourceSansPro-Regular-101"/>
     <use x="548.599854" xlink:href="#SourceSansPro-Regular-112"/>
     <use x="604.099838" xlink:href="#SourceSansPro-Regular-105"/>
     <use x="628.799835" xlink:href="#SourceSansPro-Regular-115"/>
     <use x="670.699829" xlink:href="#SourceSansPro-Regular-111"/>
     <use x="724.899826" xlink:href="#SourceSansPro-Regular-100"/>
     <use x="780.399811" xlink:href="#SourceSansPro-Regular-101"/>
    </g>
   </g>
   <g id="legend_1">
    <g id="patch_7">
     <path d="M 337.278281 302.084 
L 407.02 302.084 
Q 409.22 302.084 409.22 299.884 
L 409.22 221.9015 
Q 409.22 219.7015 407.02 219.7015 
L 337.278281 219.7015 
Q 335.078281 219.7015 335.078281 221.9015 
L 335.078281 299.884 
Q 335.078281 302.084 337.278281 302.084 
z
" style="fill:#eaeaec;opacity:0.8;stroke:#cccccc;stroke-linejoin:miter;"/>
    </g>
    <g id="text_19">
     <!-- Stage -->
     <g style="fill:#262626;" transform="translate(357.880391 232.645875)scale(0.12 -0.12)">
      <defs>
       <path d="M 27.203125 -1.203125 
C 41 -1.203125 49.59375 7.09375 49.59375 17.5 
C 49.59375 27.203125 43.703125 31.796875 36.09375 35 
L 26.703125 39.09375 
C 21.59375 41.203125 15.90625 43.59375 15.90625 49.90625 
C 15.90625 55.703125 20.703125 59.40625 28 59.40625 
C 33.703125 59.40625 38.796875 57.09375 42.796875 53.296875 
L 47.40625 58.90625 
C 42.796875 63.5 36 66.796875 28 66.796875 
C 16.09375 66.796875 7.40625 59.40625 7.40625 49.40625 
C 7.40625 39.703125 14.5 35.09375 20.59375 32.5 
L 30.09375 28.296875 
C 36.203125 25.59375 41 23.5 41 16.796875 
C 41 10.5 35.90625 6.203125 27.296875 6.203125 
C 20.40625 6.203125 13.703125 9.203125 8.90625 14.09375 
L 4.203125 8.59375 
C 9.90625 2.5 17.796875 -1.203125 27.203125 -1.203125 
z
" id="SourceSansPro-Regular-83"/>
       <path d="M 23.5 -1.203125 
C 26.796875 -1.203125 30.09375 -0.296875 32.703125 0.90625 
L 31 6.796875 
C 29 5.90625 27.203125 5.59375 25.40625 5.59375 
C 19.90625 5.59375 17.90625 9 17.90625 14.90625 
L 17.90625 41.90625 
L 31.09375 41.90625 
L 31.09375 48.59375 
L 17.90625 48.59375 
L 17.90625 64.203125 
L 11 64.203125 
L 10 48.59375 
L 2.40625 48.09375 
L 2.40625 41.90625 
L 9.59375 41.90625 
L 9.59375 15.09375 
C 9.59375 5.40625 13.09375 -1.203125 23.5 -1.203125 
z
" id="SourceSansPro-Regular-116"/>
       <path d="M 24.59375 -22.40625 
C 39.703125 -22.40625 49.203125 -14.59375 49.203125 -5.5 
C 49.203125 2.5 43.5 6.09375 32.203125 6.09375 
L 22.796875 6.09375 
C 16.296875 6.09375 14.296875 8.296875 14.296875 11.296875 
C 14.296875 14 15.59375 15.59375 17.40625 17.09375 
C 19.59375 16 22.203125 15.40625 24.59375 15.40625 
C 34.5 15.40625 42.40625 21.90625 42.40625 32.296875 
C 42.40625 36.40625 40.796875 40 38.5 42.203125 
L 48.40625 42.203125 
L 48.40625 48.59375 
L 31.5 48.59375 
C 29.703125 49.296875 27.296875 49.796875 24.59375 49.796875 
C 14.703125 49.796875 6.296875 43.09375 6.296875 32.5 
C 6.296875 26.703125 9.40625 22 12.59375 19.40625 
L 12.59375 19 
C 10.09375 17.296875 7.296875 14.09375 7.296875 10 
C 7.296875 6.203125 9.203125 3.59375 11.59375 2.09375 
L 11.59375 1.703125 
C 7.203125 -1.296875 4.5 -5.203125 4.5 -9.296875 
C 4.5 -17.703125 12.703125 -22.40625 24.59375 -22.40625 
z
M 24.59375 21 
C 19 21 14.296875 25.40625 14.296875 32.5 
C 14.296875 39.59375 18.90625 43.796875 24.59375 43.796875 
C 30.296875 43.796875 34.90625 39.5 34.90625 32.5 
C 34.90625 25.40625 30.203125 21 24.59375 21 
z
M 25.796875 -16.59375 
C 17 -16.59375 11.703125 -13.40625 11.703125 -8.203125 
C 11.703125 -5.40625 13.203125 -2.5 16.703125 0 
C 18.796875 -0.59375 21.09375 -0.796875 23 -0.796875 
L 31.296875 -0.796875 
C 37.703125 -0.796875 41.09375 -2.296875 41.09375 -6.796875 
C 41.09375 -11.796875 35 -16.59375 25.796875 -16.59375 
z
" id="SourceSansPro-Regular-103"/>
      </defs>
      <use xlink:href="#SourceSansPro-Regular-83"/>
      <use x="53.399994" xlink:href="#SourceSansPro-Regular-116"/>
      <use x="87.299988" xlink:href="#SourceSansPro-Regular-97"/>
      <use x="137.699982" xlink:href="#SourceSansPro-Regular-103"/>
      <use x="188.199966" xlink:href="#SourceSansPro-Regular-101"/>
     </g>
    </g>
    <g id="line2d_24">
     <path d="M 339.478281 244.816969 
L 361.478281 244.816969 
" style="fill:none;stroke:#60ceac;stroke-linecap:round;stroke-width:1.5;"/>
    </g>
    <g id="line2d_25"/>
    <g id="text_20">
     <!-- Grasp 1 -->
     <g style="fill:#262626;" transform="translate(370.278281 248.666969)scale(0.11 -0.11)">
      <defs>
       <path d="M 34.796875 -1.203125 
C 43.59375 -1.203125 50.796875 2 55.09375 6.40625 
L 55.09375 34 
L 33.5 34 
L 33.5 27.09375 
L 47.40625 27.09375 
L 47.40625 10 
C 44.796875 7.59375 40.296875 6.203125 35.59375 6.203125 
C 21.59375 6.203125 13.90625 16.5 13.90625 33 
C 13.90625 49.296875 22.296875 59.40625 35.5 59.40625 
C 42.09375 59.40625 46.296875 56.90625 49.59375 53.5 
L 54.203125 58.703125 
C 50.40625 62.796875 44.40625 66.796875 35.296875 66.796875 
C 17.90625 66.796875 5.203125 53.90625 5.203125 32.796875 
C 5.203125 11.40625 17.5 -1.203125 34.796875 -1.203125 
z
" id="SourceSansPro-Regular-71"/>
      </defs>
      <use xlink:href="#SourceSansPro-Regular-71"/>
      <use x="61.699997" xlink:href="#SourceSansPro-Regular-114"/>
      <use x="96.499985" xlink:href="#SourceSansPro-Regular-97"/>
      <use x="146.899979" xlink:href="#SourceSansPro-Regular-115"/>
      <use x="188.799973" xlink:href="#SourceSansPro-Regular-112"/>
      <use x="244.299957" xlink:href="#SourceSansPro-Regular-32"/>
      <use x="264.299942" xlink:href="#SourceSansPro-Regular-49"/>
     </g>
    </g>
    <g id="line2d_26">
     <path d="M 339.478281 260.404312 
L 361.478281 260.404312 
" style="fill:none;stroke:#3497a9;stroke-linecap:round;stroke-width:1.5;"/>
    </g>
    <g id="line2d_27"/>
    <g id="text_21">
     <!-- Fold 1 -->
     <g style="fill:#262626;" transform="translate(370.278281 264.254312)scale(0.11 -0.11)">
      <defs>
       <path d="M 9 0 
L 17.40625 0 
L 17.40625 29.296875 
L 42.40625 29.296875 
L 42.40625 36.40625 
L 17.40625 36.40625 
L 17.40625 58.5 
L 46.796875 58.5 
L 46.796875 65.59375 
L 9 65.59375 
z
" id="SourceSansPro-Regular-70"/>
       <path d="M 16.90625 -1.203125 
C 19 -1.203125 20.5 -0.90625 21.703125 -0.296875 
L 20.59375 5.90625 
C 19.796875 5.703125 19.40625 5.703125 18.90625 5.703125 
C 17.59375 5.703125 16.5 6.59375 16.5 9.203125 
L 16.5 71.203125 
L 8.203125 71.203125 
L 8.203125 9.796875 
C 8.203125 2.796875 10.703125 -1.203125 16.90625 -1.203125 
z
" id="SourceSansPro-Regular-108"/>
      </defs>
      <use xlink:href="#SourceSansPro-Regular-70"/>
      <use x="49.499985" xlink:href="#SourceSansPro-Regular-111"/>
      <use x="103.699982" xlink:href="#SourceSansPro-Regular-108"/>
      <use x="129.199966" xlink:href="#SourceSansPro-Regular-100"/>
      <use x="184.699951" xlink:href="#SourceSansPro-Regular-32"/>
      <use x="204.699936" xlink:href="#SourceSansPro-Regular-49"/>
     </g>
    </g>
    <g id="line2d_28">
     <path d="M 339.478281 275.991656 
L 361.478281 275.991656 
" style="fill:none;stroke:#395d9c;stroke-linecap:round;stroke-width:1.5;"/>
    </g>
    <g id="line2d_29"/>
    <g id="text_22">
     <!-- Grasp 2 -->
     <g style="fill:#262626;" transform="translate(370.278281 279.841656)scale(0.11 -0.11)">
      <use xlink:href="#SourceSansPro-Regular-71"/>
      <use x="61.699997" xlink:href="#SourceSansPro-Regular-114"/>
      <use x="96.499985" xlink:href="#SourceSansPro-Regular-97"/>
      <use x="146.899979" xlink:href="#SourceSansPro-Regular-115"/>
      <use x="188.799973" xlink:href="#SourceSansPro-Regular-112"/>
      <use x="244.299957" xlink:href="#SourceSansPro-Regular-32"/>
      <use x="264.299942" xlink:href="#SourceSansPro-Regular-50"/>
     </g>
    </g>
    <g id="line2d_30">
     <path d="M 339.478281 291.579 
L 361.478281 291.579 
" style="fill:none;stroke:#382a54;stroke-linecap:round;stroke-width:1.5;"/>
    </g>
    <g id="line2d_31"/>
    <g id="text_23">
     <!-- Fold 2 -->
     <g style="fill:#262626;" transform="translate(370.278281 295.429)scale(0.11 -0.11)">
      <use xlink:href="#SourceSansPro-Regular-70"/>
      <use x="49.499985" xlink:href="#SourceSansPro-Regular-111"/>
      <use x="103.699982" xlink:href="#SourceSansPro-Regular-108"/>
      <use x="129.199966" xlink:href="#SourceSansPro-Regular-100"/>
      <use x="184.699951" xlink:href="#SourceSansPro-Regular-32"/>
      <use x="204.699936" xlink:href="#SourceSansPro-Regular-50"/>
     </g>
    </g>
   </g>
  </g>
 </g>
 <defs>
  <clipPath id="p97f53e1780">
   <rect height="266.112" width="357.12" x="57.6" y="41.472"/>
  </clipPath>
 </defs>
</svg>
